<?xml version="1.0" encoding="UTF-8" standalone="no"?>
<!DOCTYPE svg PUBLIC "-//W3C//DTD SVG 20010904//EN" "http://www.w3.org/TR/2001/REC-SVG-20010904/DTD/svg10.dtd">
<svg version="1.0" xmlns="http://www.w3.org/2000/svg" width="500.000000pt" height="500.000000pt" viewBox="0 0 500.000000 500.000000" preserveAspectRatio="xMidYMid meet">

<g transform="translate(0.000000,500.000000) scale(0.100000,-0.100000)" fill="#000000" stroke="none">
<path d="M0 2500 l0 -2500 2500 0 2500 0 0 2500 0 2500 -2500 0 -2500 0 0 -2500z m2701 2445 c149 -26 286 -82 417 -170 84 -56 216 -189 276 -278 l46 -68 0 -412 0 -412 -34 -91 c-32 -84 -133 -250 -190 -312 -62 -69 -247 -174 -370 -212 -156 -49 -362 -64 -528 -40 -205 30 -413 134 -566 284 -98 96 -126 149 -163 309 l-31 132 7 385 7 385 35 54 c51 79 193 222 273 275 129 87 298 156 430 175 93 14 302 12 391 -4z m-708 -1934 c322 -154 669 -159 984 -15 42 19 83 34 93 34 48 0 179 -254 235 -458 36 -127 74 -313 85 -419 12 -105 10 -259 -3 -293 -4 -10 9 -25 40 -45 66 -43 86 -74 91 -144 11 -150 -90 -271 -226 -271 -30 0 -54 5 -59 13 -4 6 -8 113 -9 236 -4 396 -57 710 -171 996 -42 108 -53 121 -82 106 -20 -11 -20 -13 -5 -49 139 -324 182 -548 191 -998 4 -230 2 -309 -12 -430 -29 -254 -95 -545 -163 -722 l-20 -52 57 0 c176 0 321 -95 321 -211 0 -81 -27 -126 -114 -190 l-39 -29 -283 0 -282 0 -44 33 -43 33 -3 448 -2 447 -28 -3 -27 -3 -5 -439 -5 -438 -44 -39 -44 -39 -264 0 c-294 0 -271 -5 -370 78 -113 95 -123 206 -26 293 58 53 117 72 202 67 39 -2 71 -3 71 -2 0 1 -38 152 -84 336 -76 300 -86 351 -100 506 -19 203 -20 305 -5 496 18 247 86 578 168 818 l29 86 -21 6 c-12 3 -25 6 -29 6 -10 0 -67 -179 -119 -377 -62 -238 -102 -557 -97 -793 1 -80 -1 -151 -5 -157 -10 -16 -68 -17 -122 -2 -52 14 -126 90 -143 145 -16 56 -15 149 2 183 17 33 76 86 104 95 17 6 19 11 11 44 -29 124 7 427 82 689 65 224 186 463 236 463 8 0 51 -18 96 -39z"/>
</g>
</svg>